<svg width="96" height="96" viewBox="0 0 96 96" fill="none" xmlns="http://www.w3.org/2000/svg">
<path d="M75.1996 25.5999C67.6624 15.5504 58.0824 10 47.9996 10C37.9164 10 28.3366 15.5504 20.7994 25.5999C15.1334 33.1546 8.29671 43.3624 7.35291 54.0976C6.86623 59.6328 7.94131 65.3 11.4272 70.6924C14.8729 76.022 20.5017 80.8208 28.6868 85.014C33.724 87.5948 39.2113 84.1368 39.9221 79.084C38.3086 78.0072 36.7228 76.658 35.2751 75.0784C31.2245 70.6596 27.9995 64.1892 27.9995 55.9996C27.9995 42.286 35.0793 33.0615 43.5956 30.6259C44.7252 30.3029 45.9976 31.1526 46.1324 32.3196C47.2732 42.2068 55.6292 49.8992 65.7992 49.9988C68.4956 50.0252 67.9996 54.2436 67.9996 55.9996C67.9996 64.1892 64.7744 70.6596 60.7236 75.0784C59.2716 76.6624 57.6808 78.0152 56.0624 79.0936C56.7032 84.1628 62.1352 87.6484 67.1768 85.2164C75.8364 81.0388 81.75 76.2428 85.3264 70.8764C88.9572 65.4288 89.9796 59.6888 89.3568 54.1C88.1576 43.3376 80.8032 33.0714 75.1996 25.5999Z" fill="#0F52BA"/>
</svg>
