<svg width="76" height="57" viewBox="0 0 76 57" fill="none" xmlns="http://www.w3.org/2000/svg">
<path d="M7.42767 27.9912C7.34002 27.9912 7.25192 27.9844 7.16427 27.9702C4.89572 27.6059 3.15661 26.589 1.99478 24.9484C-0.0619493 22.0442 0.592565 18.266 0.62134 18.1067C0.694605 17.7016 0.915949 17.3382 1.24221 17.0872C9.60525 10.6494 22.0598 4.55112 32.9719 1.55147C36.6597 0.53749 40.3787 0.0235291 44.0254 0.0235291C53.9788 0.0235291 61.8885 3.86164 66.7711 7.08131C71.6495 10.2983 74.5213 13.5043 75.0312 14.0946C75.3214 14.3936 75.5 14.8013 75.5 15.2509C75.5 16.1644 74.7623 16.9054 73.8501 16.911C73.519 16.9077 73.179 16.8167 72.8868 16.6133C69.4281 14.2048 58.7627 11.6259 48.3987 11.6259C44.766 11.6259 41.3911 11.9298 38.368 12.5288C29.6756 14.2513 8.52864 27.5992 8.31614 27.734C8.04876 27.9027 7.74043 27.9912 7.42767 27.9912ZM3.82994 19.2902C3.78103 20.1579 3.8295 21.806 4.71443 23.0435C5.25584 23.8005 6.04183 24.3039 7.10628 24.5726C10.6562 22.3536 29.159 10.9686 37.7226 9.27173C40.958 8.63072 44.5499 8.30556 48.3987 8.30556C54.6871 8.30556 60.8105 9.15464 65.7135 10.3731C65.4329 10.1792 65.1449 9.98512 64.8487 9.791C60.3628 6.84978 53.1089 3.34391 44.0254 3.34391C40.676 3.34391 37.2531 3.81803 33.8519 4.75299C23.5641 7.58066 11.8689 13.2524 3.82994 19.2902Z" fill="#0F52BA"/>
<path d="M66.2674 31.1888C65.5084 30.9083 64.658 31.2164 64.2541 31.9174C62.3213 35.2724 60.8285 36.9041 59.4141 37.2087C58.8309 37.334 58.1644 37.2476 57.4046 36.9495C58.1793 35.4266 58.6158 33.6233 58.7038 31.5513C58.7428 30.6354 58.0318 29.8612 57.1157 29.8222C56.1987 29.7808 55.4255 30.4942 55.3866 31.4103C55.3239 32.8812 55.0446 34.1497 54.5536 35.2086C53.5665 34.5012 52.2054 33.6194 50.4926 32.7296C51.0336 31.4624 51.3415 30.0318 51.409 28.4443C51.448 27.5284 50.7368 26.7542 49.8209 26.7154C48.9016 26.672 48.1307 27.3876 48.0917 28.3036C48.0435 29.4375 47.8352 30.4488 47.4706 31.3331C45.9208 30.6992 44.1857 30.1126 42.275 29.6423C42.5699 28.6916 42.7434 27.6736 42.7894 26.591C42.8284 25.6751 42.1172 24.9008 41.2013 24.8619C40.2845 24.8189 39.5111 25.5341 39.4721 26.45C39.4319 27.398 39.2559 28.238 38.9777 28.9849C36.3282 28.5796 33.4117 28.4209 30.2485 28.6533C13.6789 29.8727 8.65663 38.3072 5.9352 46.4042C5.93476 46.406 5.93409 46.4077 5.93343 46.4093C5.93144 46.4153 5.92922 46.4212 5.92745 46.4272L5.9279 46.4279C5.76122 46.9263 5.83471 47.4917 6.16429 47.9394C6.43566 48.3084 12.9824 56.9758 27.5948 56.9765C27.5955 56.9765 27.5959 56.9765 27.5966 56.9765C28.6011 56.9765 29.6347 56.9342 30.6691 56.8507C45.8464 55.6276 51.3661 49.5457 53.1911 46.5341C55.3952 47.342 57.4878 47.2834 59.4299 46.3542C65.3026 43.5447 67.244 33.4779 67.3239 33.0507C67.4731 32.2554 67.0266 31.469 66.2674 31.1888ZM40.7433 32.6897C42.422 33.0629 43.9597 33.5366 45.3479 34.0598C42.8609 35.8932 39.4212 35.8766 38.7537 35.8541C38.365 35.7522 37.9765 35.6562 37.5885 35.5687C38.8719 34.7648 39.9263 33.8006 40.7433 32.6897ZM29.9833 53.5749C25.7172 53.5749 22.2465 50.104 22.2465 45.8378C22.2465 41.5718 25.7172 38.1009 29.9833 38.1009C34.2495 38.1009 37.7202 41.5716 37.7202 45.8378C37.7202 50.104 34.2495 53.5749 29.9833 53.5749ZM30.4929 31.9646C32.734 31.7997 34.8372 31.8491 36.7957 32.05C34.435 34.0448 31.1153 34.6342 29.3866 34.8084C28.9503 34.8268 28.5187 34.8545 28.0913 34.8912C28.0882 34.8914 28.0849 34.8916 28.0818 34.8919C21.7414 35.4348 16.3955 37.9274 12.1618 40.8766C15.2224 36.2866 20.4029 32.7072 30.4929 31.9646ZM20.5543 40.0764C19.5235 41.7553 18.9263 43.7273 18.9263 45.8378C18.9263 48.6108 19.9569 51.1443 21.65 53.0866C15.2677 51.8105 11.4498 48.7044 9.79876 47.0463C12.5472 44.4922 16.1673 41.827 20.5543 40.0764ZM47.5609 47.9177C45.8938 49.2741 43.2359 50.8583 39.1355 52.0323C40.3372 50.2644 41.0406 48.132 41.0406 45.8378C41.0406 43.4174 40.2588 41.1765 38.9343 39.3537C42.679 40.468 46.4759 42.3215 50.2948 44.9097C49.8202 45.6693 48.9764 46.7659 47.5609 47.9177ZM47.1112 39.1364C46.3803 38.7545 45.6499 38.3977 44.9203 38.0659C45.9969 37.6221 47.0749 37.0081 48.0391 36.1493C48.2628 35.9501 48.4731 35.7407 48.675 35.5251C50.237 36.3182 51.4927 37.1124 52.4186 37.7636C50.4154 39.1344 47.9284 39.1678 47.1112 39.1364ZM57.9978 43.3594C56.6121 44.0223 55.0676 43.8849 53.2791 42.9419C52.728 42.5495 52.1769 42.1725 51.6257 41.808C52.7953 41.4222 54.0158 40.8181 55.1163 39.8745C55.1975 39.805 55.2743 39.7316 55.3527 39.6596C57.0635 40.51 58.635 40.7723 60.1129 40.4545C60.4888 40.3735 60.8502 40.257 61.1988 40.1087C60.3287 41.5384 59.2634 42.7538 57.9978 43.3594Z" fill="#0F52BA"/>
<path d="M29.9836 51.21C27.0213 51.21 24.6113 48.8 24.6113 45.8378C24.6113 42.8755 27.0213 40.4655 29.9836 40.4655C32.9458 40.4655 35.3558 42.8755 35.3558 45.8378C35.3556 48.8003 32.9458 51.21 29.9836 51.21ZM29.9836 43.7859C28.8521 43.7859 27.9315 44.7065 27.9315 45.838C27.9315 46.9695 28.8521 47.8901 29.9836 47.8901C31.1151 47.8901 32.0357 46.9695 32.0357 45.838C32.0357 44.7065 31.1151 43.7859 29.9836 43.7859Z" fill="#0F52BA"/>
</svg>
