<svg width="98" height="94" viewBox="0 0 98 94" fill="none" xmlns="http://www.w3.org/2000/svg">
<path d="M73.25 93.0488V82.71C73.25 82.71 73.25 72.3713 84.0278 72.3713C94.8056 72.3713 94.8056 82.71 94.8056 82.71V93.0488H73.25ZM49 93.0488V69.7866C49 69.7866 49 59.4479 59.7778 59.4479C70.5556 59.4479 70.5556 69.7866 70.5556 69.7866V93.0488H49ZM24.75 93.0488V62.0325C24.75 62.0325 24.75 51.6938 35.5278 51.6938C46.3056 51.6938 46.3056 62.0325 46.3056 62.0325V93.0488H24.75ZM0.5 93.0488V69.7866C0.5 69.7866 0.5 59.4479 11.2778 59.4479C22.0556 59.4479 22.0556 69.7866 22.0556 69.7866V93.0488H0.5Z" fill="#F7DECE"/>
<path d="M43.6111 62.0325C43.6111 57.7497 43.6111 41.355 35.5278 41.355C27.4445 41.355 27.4445 57.7497 27.4445 62.0325C27.4445 64.089 28.2961 66.0613 29.812 67.5155C31.3279 68.9696 33.384 69.7866 35.5278 69.7866C37.6716 69.7866 39.7277 68.9696 41.2436 67.5155C42.7595 66.0613 43.6111 64.089 43.6111 62.0325ZM19.3611 69.7866C19.3611 65.5038 19.3611 49.1091 11.2778 49.1091C3.19446 49.1091 3.19446 65.5038 3.19446 69.7866C3.19446 70.8049 3.40354 71.8132 3.80977 72.7539C4.21599 73.6947 4.8114 74.5495 5.56201 75.2695C6.31262 75.9896 7.20372 76.5607 8.18443 76.9504C9.16515 77.3401 10.2163 77.5406 11.2778 77.5406C12.3393 77.5406 13.3904 77.3401 14.3711 76.9504C15.3519 76.5607 16.243 75.9896 16.9936 75.2695C17.7442 74.5495 18.3396 73.6947 18.7458 72.7539C19.152 71.8132 19.3611 70.8049 19.3611 69.7866ZM67.8611 69.7866C67.8611 65.5038 67.8611 49.1091 59.7778 49.1091C51.6945 49.1091 51.6945 65.5038 51.6945 69.7866C51.6945 71.8431 52.5461 73.8154 54.062 75.2695C55.5779 76.7237 57.634 77.5406 59.7778 77.5406C61.9216 77.5406 63.9777 76.7237 65.4936 75.2695C67.0095 73.8154 67.8611 71.8431 67.8611 69.7866ZM92.1111 82.71C92.1111 78.4272 92.1111 62.0325 84.0278 62.0325C75.9445 62.0325 75.9445 78.4272 75.9445 82.71C75.9445 84.7665 76.7961 86.7388 78.312 88.193C79.8279 89.6471 81.884 90.4641 84.0278 90.4641C86.1716 90.4641 88.2276 89.6471 89.7436 88.193C91.2595 86.7388 92.1111 84.7665 92.1111 82.71Z" fill="#DD2E44"/>
<path d="M35.5278 41.355V51.6938H40.9167C40.9167 51.6938 46.3056 51.6938 57.0834 41.355L51.6945 36.1856C51.6945 36.1856 46.3056 41.355 35.5278 41.355Z" fill="#DD2E44"/>
<path d="M51.6945 36.1856L73.25 15.5081L78.6389 20.6775L57.0833 41.355L51.6945 36.1856Z" fill="#0F52BA"/>
<path d="M73.25 15.5081C73.25 15.5081 67.8612 10.3388 73.25 5.16938L78.6389 0H97.5V12.9234L89.4167 20.6775C84.0278 25.8469 78.6389 20.6775 78.6389 20.6775L73.25 15.5081Z" fill="#0F52BA"/>
</svg>
