<svg width="85" height="85" viewBox="0 0 85 85" fill="none" xmlns="http://www.w3.org/2000/svg">
<path fill-rule="evenodd" clip-rule="evenodd" d="M24.946 0.521597C18.0275 0.833759 12.031 2.52524 7.18885 7.34689C2.32983 12.1939 0.659351 18.2142 0.346411 25.0607C0.15188 29.334 -0.985635 61.6176 2.31292 70.084C4.53733 75.7957 8.91837 80.1874 14.6824 82.4189C17.372 83.4651 20.4422 84.1732 24.946 84.3799C62.6045 86.0842 76.5641 85.1564 82.4508 70.084C83.4953 67.401 84.2142 64.3335 84.413 59.8409C86.1341 22.0859 84.1339 13.9023 77.5707 7.34689C72.3649 2.154 66.2414 -1.38091 24.946 0.521597ZM25.2927 76.7868C21.1695 76.6012 18.9325 75.9142 17.4397 75.3363C13.6844 73.8767 10.8637 71.0677 9.4132 67.3344C6.90122 60.9012 7.73436 30.3471 7.95849 25.4031C8.17839 20.5603 9.15948 16.1344 12.5764 12.7175C16.8054 8.49903 22.2691 6.4316 59.4708 8.11056C64.3256 8.3299 68.7618 9.30899 72.1872 12.7175C76.4161 16.9359 78.5137 22.4416 76.8052 59.5005C76.6191 63.6135 75.9298 65.8452 75.3505 67.3344C71.5233 77.1422 62.7186 78.5037 25.2927 76.7868ZM59.8811 19.9308C59.8811 22.7235 62.152 24.9943 64.9558 24.9943C67.7596 24.9943 70.0347 22.7235 70.0347 19.9308C70.0347 17.1383 67.7596 14.8694 64.9558 14.8694C62.152 14.8694 59.8811 17.1383 59.8811 19.9308ZM20.6663 42.4487C20.6663 54.4122 30.3886 64.1116 42.3818 64.1116C54.375 64.1116 64.0973 54.4122 64.0973 42.4487C64.0973 30.4852 54.375 20.792 42.3818 20.792C30.3886 20.792 20.6663 30.4852 20.6663 42.4487ZM28.2868 42.4487C28.2868 34.6868 34.5964 28.3893 42.3818 28.3893C50.1673 28.3893 56.4768 34.6868 56.4768 42.4487C56.4768 50.2148 50.1673 56.5143 42.3818 56.5143C34.5964 56.5143 28.2868 50.2148 28.2868 42.4487Z" fill="#FFD1DC"/>
</svg>
