<svg width="85" height="86" viewBox="0 0 85 86" fill="none" xmlns="http://www.w3.org/2000/svg">
<path d="M61.0938 0.5H23.9062C10.625 0.5 0 11.125 0 24.4062V61.5938C0 74.875 10.625 85.5 23.9062 85.5H61.0938C74.375 85.5 85 74.875 85 61.5938V24.4062C85 11.125 74.375 0.5 61.0938 0.5Z" fill="#FFEC06"/>
<path d="M42.7656 76.2031C40.9062 76.2031 39.0469 75.9375 37.1875 75.4062C35.0625 74.6094 32.9375 73.5469 31.3437 72.4844C29.4844 71.4219 27.3594 70.8906 24.9687 70.8906H24.7031C24.1719 70.8906 23.6406 70.8906 22.8438 70.625H22.3125C20.4531 70.3594 18.0625 69.5625 17.5312 66.375C17.2656 66.375 17 66.1094 16.7344 66.1094L15.4062 65.5781C14.3438 65.0469 13.2812 64.7812 12.2187 64.25C9.5625 62.9219 9.29688 60.7969 9.29688 60C9.29688 59.2031 9.5625 57.0781 12.2187 55.4844C15.4062 53.8906 17.5312 52.0313 19.125 50.1719C20.4531 48.8438 21.25 47.25 21.7812 45.6562C21.25 45.3906 20.9844 45.125 20.7187 44.8594C19.9219 44.3281 19.3906 43.7969 18.5937 43.5313C17.7969 43 17.2656 42.4688 16.4687 41.6719C14.6094 39.8125 14.3438 37.4219 15.4062 35.0312C16.4688 32.9062 18.3281 31.5781 20.7187 31.5781C20.9844 31.5781 21.25 31.5781 21.5156 31.5781C22.0469 31.5781 22.5781 31.8438 23.1094 31.8438C23.1094 29.9844 23.1094 28.125 23.375 26.2656C23.9062 19.625 27.625 14.5781 33.7344 11.6562C37.1875 10.0625 39.0469 9.79688 42.5 9.79688C48.6094 9.79688 53.6562 11.9219 57.6406 16.1719C60.2969 18.8281 61.625 22.2813 62.1562 26C62.4219 27.8594 62.4219 29.7188 62.4219 31.8438C62.9531 31.8438 63.75 31.5781 64.2812 31.5781C66.9375 31.5781 69.0625 33.1719 69.8594 35.2969C70.6562 37.6875 70.125 40.3438 68.2656 41.9375C67.2031 42.7344 66.4062 43.5312 65.3437 44.3281L64.5469 44.8594C64.2812 45.125 63.75 45.3906 63.4844 45.6562C63.4844 45.6562 63.2187 45.6562 63.2187 45.9219C64.2812 48.5781 65.875 50.9688 68.5312 52.8281C69.3281 53.3594 70.3906 54.1562 71.4531 54.6875C71.9844 54.9531 72.7812 55.4844 73.3125 55.75C75.9687 57.3437 75.9687 59.4688 75.7031 60.5312C75.4375 62.125 74.1094 63.7188 72.5156 64.5156C70.9219 65.0469 69.3281 65.8437 67.7344 66.375C67.2031 68.7656 65.3437 70.625 62.6875 70.625H62.4219C61.8906 70.625 61.3594 70.8906 60.5625 70.8906H60.0312C57.375 70.8906 54.9844 71.6875 52.8594 73.2812C49.6719 75.1406 46.2187 76.2031 42.7656 76.2031Z" fill="#FFD1DC"/>
<path d="M42.5 11.125C48.3438 11.125 52.8594 13.25 56.5781 16.9687C58.9687 19.625 60.2969 22.5469 60.8281 26.2656C61.0938 28.6562 61.0938 31.0469 61.0938 33.7031C61.3594 33.7031 61.3594 33.7031 61.625 33.4375C62.6875 33.1719 63.4844 32.9062 64.5469 32.9062C64.5469 32.9062 64.5469 32.9062 64.8125 32.9062C66.6719 32.9062 68.2656 33.9688 68.7969 35.8281C69.5938 37.6875 69.0625 39.8125 67.4688 40.875C66.4062 41.6719 65.6094 42.4688 64.5469 43L63.75 43.7969C63.4844 44.0625 63.2188 44.3281 62.6875 44.5938C62.4219 44.8594 62.1562 44.8594 61.8906 45.125L61.625 45.3906V45.6562C62.6875 48.8438 64.5469 51.5 67.4688 53.625C68.2656 54.4219 69.3281 54.9531 70.3906 55.4844C70.9219 55.75 71.7188 56.2812 72.25 56.5469C74.1094 57.6094 74.375 58.9375 74.1094 60C73.8438 61.3281 73.0469 62.3906 71.7188 62.9219C69.8594 63.7188 68 64.5156 66.1406 65.0469C65.875 67.4375 64.2812 69.0312 62.1562 69.0312C61.8906 69.0312 61.8906 69.0312 61.625 69.0312C61.0938 69.0312 60.5625 69.2969 60.0312 69.2969H59.7656C56.8438 69.2969 54.1875 70.0937 51.7969 71.6875C48.875 73.5469 45.6875 74.6094 42.5 74.6094C40.9062 74.6094 39.0469 74.3438 37.1875 73.8125C35.0625 73.2812 33.2031 71.9531 31.6094 71.1562C29.4844 69.8281 27.3594 69.2969 24.7031 69.2969H24.4375C23.9062 69.2969 23.375 69.2969 22.8438 69.2969H22.3125C20.1875 69.0312 18.8594 68.2344 18.3281 65.3125C18.0625 65.3125 18.0625 65.3125 17.7969 65.0469C17.5312 65.0469 17 64.7813 16.7344 64.7813L15.9375 64.25C14.875 63.9844 13.8125 63.4531 13.0156 62.9219C10.8906 62.125 10.625 60.5312 10.625 59.7344C10.625 58.9375 10.8906 57.6094 12.75 56.5469C15.9375 54.6875 18.3281 53.0938 20.1875 50.9688C21.7812 49.1094 22.8438 47.25 23.375 45.3906C22.5781 44.8594 22.0469 44.3281 21.25 44.0625C20.4531 43.5312 19.9219 43.2656 19.3906 42.7344C18.8594 42.2031 18.0625 41.6719 17.5312 40.875C16.2031 39.5469 15.9375 37.4219 16.7344 35.8281C17.5313 34.2344 19.125 33.1719 20.7188 33.1719C20.9844 33.1719 21.25 33.1719 21.25 33.1719C22.3125 33.4375 23.375 33.7031 24.1719 33.9688C24.1719 31.5781 24.1719 29.1875 24.1719 26.7969C24.7031 20.6875 28.1562 15.9063 33.7344 13.25C37.4531 11.3906 39.0469 11.125 42.5 11.125ZM42.5 8.46875H42.2344C38.7812 8.46875 36.6562 8.73437 32.9375 10.5937C26.2969 13.7812 22.3125 19.3594 21.7812 26.2656C21.7812 27.5938 21.5156 28.9219 21.5156 30.25C21.25 30.25 20.9844 30.25 20.4531 30.25C17.7969 30.25 15.4063 31.8438 14.0781 34.5C12.75 37.1562 13.2813 40.3438 15.4063 42.7344C16.2031 43.5312 17 44.3281 17.7969 44.8594C18.5938 45.125 19.125 45.6563 19.9219 46.1875L20.1875 46.4531C19.6562 47.5156 18.8594 48.5781 18.0625 49.6406C16.4688 51.5 14.3438 53.0938 11.4219 54.6875C8.23438 56.0156 7.96875 58.6719 7.96875 60C7.96875 62.3906 9.29688 64.25 11.6875 65.3125C12.75 65.8438 14.0781 66.375 14.875 66.6406L16.2031 67.1719H16.4687C17.7969 70.8906 20.9844 71.6875 22.3125 71.6875H22.8438C23.375 71.9531 23.9062 72.2188 24.7031 72.2188H24.9687C27.0937 72.2188 28.9531 72.75 30.5469 73.8125C32.1406 74.875 34.2656 76.2031 36.6562 76.7344C38.7812 77.2656 40.6406 77.5312 42.7656 77.5312C46.4844 77.5312 50.2031 76.4688 53.6563 74.0781C55.7813 72.75 57.9063 71.9531 60.2969 71.9531H60.5625C61.3594 71.9531 61.8906 71.9531 62.4219 71.6875C62.6875 71.6875 62.6875 71.6875 62.6875 71.6875C65.6094 71.4219 67.7344 69.5625 68.7969 67.1719C70.3906 66.6406 71.7188 66.1094 73.0469 65.5781C75.1719 64.7812 76.7656 62.6562 77.0312 60.5312C77.2969 59.4688 77.2969 56.5469 73.8438 54.4219C73.3125 53.8906 72.5156 53.625 71.9844 53.3594C70.9219 52.8281 70.125 52.2969 69.3281 51.5C67.2031 49.9063 65.875 48.0469 64.8125 46.1875C65.0781 46.1875 65.0781 45.9219 65.3438 45.9219L66.1406 45.3906C67.2031 44.5938 68.2656 43.7969 69.0625 43C71.4531 41.1406 72.25 37.9531 71.1875 35.0312C70.125 32.1094 67.4687 30.25 64.5469 30.25H64.2813C64.0156 30.25 64.0156 30.25 63.75 30.25C63.75 28.6562 63.4844 27.3281 63.4844 25.7344C62.9531 21.75 61.3594 18.0312 58.7031 15.1094C54.4531 10.8594 49.1406 8.46875 42.5 8.46875Z" fill="black"/>
</svg>
