<svg width="85" height="86" viewBox="0 0 85 86" fill="none" xmlns="http://www.w3.org/2000/svg">
<path d="M61.7882 51.4441C60.7042 50.9341 55.5124 48.3842 54.5425 47.9875C53.5726 47.5909 52.8879 47.4775 52.1462 48.5542C51.4046 49.6308 49.4077 51.9541 48.7801 52.6908C48.1526 53.4274 47.582 53.4841 46.498 52.6908C43.3845 51.4498 40.509 49.6863 37.9972 47.4775C35.7233 45.3512 33.7983 42.8848 32.2919 40.1676C31.6643 39.1477 32.2919 38.581 32.7483 38.0143C33.2047 37.4477 33.7753 36.8244 34.3458 36.201C34.763 35.662 35.1082 35.0715 35.3727 34.4444C35.5143 34.1528 35.5878 33.8332 35.5878 33.5094C35.5878 33.1857 35.5143 32.8661 35.3727 32.5744C35.3727 32.0644 32.9765 26.9079 32.0637 24.8112C31.1508 22.7146 30.3521 22.9979 29.7245 22.9979H27.4424C26.3553 23.04 25.3293 23.5087 24.5898 24.3012C23.396 25.4327 22.4504 26.7969 21.8122 28.3083C21.1741 29.8197 20.8572 31.4457 20.8813 33.0844C21.1732 37.1076 22.6626 40.9538 25.1603 44.1342C29.7437 50.8969 36.0144 56.3636 43.3601 60.0006C45.8704 61.0773 47.8102 61.7006 49.3507 62.2106C51.5138 62.86 53.8002 62.9958 56.0258 62.6073C57.504 62.3094 58.9049 61.7131 60.1415 60.8553C61.3781 59.9975 62.424 58.8966 63.2145 57.6207C63.8724 56.045 64.0892 54.3221 63.8421 52.6341C63.5568 52.2374 62.8722 51.9541 61.7882 51.4441Z" fill="#FFD1DC"/>
<path d="M72.457 12.8546C68.5114 8.89864 63.8082 5.76753 58.6246 3.6459C53.4411 1.52428 47.8823 0.455105 42.2761 0.501444C34.8495 0.540045 27.5631 2.51326 21.1446 6.22401C14.7261 9.93476 9.4001 15.2532 5.69865 21.648C1.9972 28.0429 0.0498059 35.2904 0.050969 42.6668C0.0521322 50.0431 2.00181 57.29 5.70528 63.6837L0 85.5L22.4788 79.8334C28.6932 83.192 35.6577 84.9457 42.7325 84.9333H42.2761C50.708 84.9879 58.9653 82.547 65.9949 77.9218C73.0245 73.2966 78.5078 66.6968 81.7457 58.964C84.9836 51.2311 85.8294 42.7157 84.175 34.5036C82.5207 26.2914 78.4413 18.7547 72.457 12.8546ZM42.2761 77.6801C35.9464 77.6851 29.7344 75.9811 24.3045 72.7502L23.0493 72.0136L9.69897 75.4702L13.2362 62.5504L12.4375 61.2471C7.88102 53.9589 6.1766 45.2631 7.64763 36.8095C9.11866 28.3559 13.6628 20.7327 20.4179 15.3863C27.1729 10.0399 35.6689 7.34224 44.2938 7.80519C52.9188 8.26814 61.0726 11.8595 67.2082 17.8978C70.4975 21.1385 73.1046 24.9969 74.8775 29.2484C76.6504 33.4998 77.5537 38.0591 77.5347 42.6607C77.5197 51.9439 73.8001 60.8425 67.1911 67.4066C60.5821 73.9708 51.6227 77.6652 42.2761 77.6801Z" fill="#FFD1DC"/>
</svg>
